<svg xmlns="http://www.w3.org/2000/svg" viewBox="0 0 584.88 650"><title>environmental</title><g id="Layer_2" data-name="Layer 2"><g id="environmental"><path d="M558.48,124.18s-52,45.24-165.57,87.59S48.3,329.21,162.85,620.88c0,0-10.59-277.23,284.93-313.81,0,0-296.48,87.6-203.11,340.77C244.67,647.84,697.09,713.29,558.48,124.18Z"/><path d="M114.72,0S292.8,108.77,339,208.89c0,0-196.37,81.82-218.51,178.08,0,0-2.89-97.22,32.73-145.36,0,0-147.28,165.57-30.8,321.52l14.44,52.94S-106.68,501.52,56,204.07C56,204.07,115.68,100.11,114.72,0Z"/></g></g></svg>