<svg xmlns="http://www.w3.org/2000/svg" viewBox="0 0 669.52 650"><title>gallery</title><g id="Layer_2" data-name="Layer 2"><g id="gallery"><path d="M599.32,230.18l-3.08,43.72,19.35,11-23,40.53L586.19,417l83.33-147ZM269,545.09,454.15,650l50.45-89Z"/><path d="M467.05,110.32l11,40.44,73.12,5.11L536.5,365.58,554,429.77l-22.4,6.4-.58,8.28-22.48-1.58L186.09,528.56l376.83,26.35,30.47-435.75Z"/><path d="M0,113.06,113.06,535,535,421.93,421.93,0ZM468.83,327.88l-345.5,92.58L48.45,141,394,48.45Z"/><circle cx="126.39" cy="186.7" r="45.33"/><path d="M136.46,393.05S216.91,279.34,216.29,242l38.27,40.94,40.53-157.62S383.16,297.94,444.55,310.5Z"/><path d="M51.32,514.66h-.11C51.16,514.64,51.2,514.64,51.32,514.66Z"/></g></g></svg>